# xmcd
#
# Track frame offsets: 
#        150
#        14107
#        24233
#        34356
#        44753
#        53229
#        64264
#        77315
#        87383
#        100246
#        110398
#        122125
#        132281
#        144989
#        154770
#        168937
#        181000
#        193915
#        203233
#        213868
#        223882
#        237625
#
# Disc length: 3390 seconds
#
# Revision: 0
# Processed by: cddbd v1.5.2PL0 Copyright (c) Steve Scherf et al.
# Submitted via: ExactAudioCopy v1.1
#
DISCID=410d3c16
DTITLE=Various Artist - All-Time Country Favourites 1965-1969 Disc 1
DYEAR=2011
DGENRE=Country
TTITLE0=Glen Campbell - Wichita Lineman
TTITLE1=Eddy Arnold - The last word in lonesome is me
TTITLE2=Willie Nelson - Bring me sunshine
TTITLE3=Bill Anderson - I get the fever
TTITLE4=Roger Miller - England swings
TTITLE5=Sonny James - I'll never find another you
TTITLE6=Leapy Lee - Little arrows
TTITLE7=Slim Whitman - The twelfth of never
TTITLE8=Connie Smith - The hurtin's all over
TTITLE9=David Houston - You mean the world to me
TTITLE10=Jack Greene - There goes my everything
TTITLE11=Jim Reeves - Is t really over ?
TTITLE12=Eddy Arnold - Then you can tell me goodbye
TTITLE13=Loretta Lynn - Don't come home a drinkin' ( with lovin' on yo
TTITLE13=ur mind )
TTITLE14=Charley Pride - ( I'm so ) afraid of losing you again
TTITLE15=Sonny James - Only the lonely
TTITLE16=Porter Waggoner - The Carroll County accident
TTITLE17=Tammy Wynette - Your good girl's gonna go bad
TTITLE18=Waylon Jennings - Only Daddy that'll walk the line
TTITLE19=Don Gibson - Funny familiar forgotten feelings
TTITLE20=Marty Robbins -  I walk alone
TTITLE21=Johnny Cash - A boy named Sue
EXTD=
EXTT0=
EXTT1=
EXTT2=
EXTT3=
EXTT4=
EXTT5=
EXTT6=
EXTT7=
EXTT8=
EXTT9=
EXTT10=
EXTT11=
EXTT12=
EXTT13=
EXTT14=
EXTT15=
EXTT16=
EXTT17=
EXTT18=
EXTT19=
EXTT20=
EXTT21=
PLAYORDER=
